<?xml version="1.0" encoding="UTF-8" standalone="no"?>
<score-partwise version="2.0">
    <movement-title>iltur</movement-title>
    <identification>
        <encoding>
            <software>Logic Pro</software>
            <encoding-date>2015-05-05</encoding-date>
            <supports attribute="new-system" element="print" type="yes" value="yes"/>
            <supports attribute="new-page" element="print" type="yes" value="yes"/>
        </encoding>
    </identification>
    <defaults>
        <scaling>
            <millimeters>7.540625</millimeters>
            <tenths>40</tenths>
        </scaling>
        <page-layout>
            <page-height>1481</page-height>
            <page-width>1145</page-width>
            <page-margins type="both">
                <left-margin>34</left-margin>
                <right-margin>34</right-margin>
                <top-margin>36</top-margin>
                <bottom-margin>36</bottom-margin>
            </page-margins>
        </page-layout>
        <system-layout>
            <system-margins>
                <left-margin>26</left-margin>
                <right-margin>0</right-margin>
            </system-margins>
            <system-distance>87</system-distance>
            <top-system-distance>96</top-system-distance>
        </system-layout>
        <staff-layout>
            <staff-distance>0</staff-distance>
        </staff-layout>
    </defaults>
    <part-list>
        <score-part id="P1">
            <part-name>Marimba</part-name>
            <score-instrument id="P1-I1">
                <instrument-name>Choir Aahs</instrument-name>
            </score-instrument>
            <midi-instrument id="P1-I1">
                <midi-channel>1</midi-channel>
                <midi-program>53</midi-program>
            </midi-instrument>
        </score-part>
    </part-list>
    <part id="P1">
        <measure number="1" width="332">
            <print page-number="1">
                <system-layout>
                    <system-margins>
                        <left-margin>94</left-margin>
                        <right-margin>0</right-margin>
                    </system-margins>
                    <top-system-distance>96</top-system-distance>
                </system-layout>
                <measure-numbering>none</measure-numbering>
            </print>
            <attributes>
                <divisions>60</divisions>
                <key>
                    <fifths>0</fifths>
                    <mode>major</mode>
                </key>
                <time>
                    <beats>7</beats>
                    <beat-type>8</beat-type>
                </time>
                <clef>
                    <sign>G</sign>
                    <line>2</line>
                </clef>
            </attributes>
            <note>
                <pitch>
                    <step>D</step>
                    <octave>4</octave>
                </pitch>
                <duration>20</duration>
                <voice>1</voice>
                <type>eighth</type>
                <time-modification>
                    <actual-notes>3</actual-notes>
                    <normal-notes>2</normal-notes>
                    <normal-type>eighth</normal-type>
                </time-modification>
                <stem>up</stem>
                <staff>1</staff>
                <beam number="1">begin</beam>
                <notations>
                    <tuplet type="start"/>
                </notations>
            </note>
            <note>
                <pitch>
                    <step>B</step>
                    <alter>-1</alter>
                    <octave>3</octave>
                </pitch>
                <duration>20</duration>
                <voice>1</voice>
                <type>eighth</type>
                <accidental>flat</accidental>
                <time-modification>
                    <actual-notes>3</actual-notes>
                    <normal-notes>2</normal-notes>
                    <normal-type>eighth</normal-type>
                </time-modification>
                <stem>up</stem>
                <staff>1</staff>
                <beam number="1">continue</beam>
            </note>
            <note>
                <pitch>
                    <step>F</step>
                    <alter>1</alter>
                    <octave>3</octave>
                </pitch>
                <duration>20</duration>
                <voice>1</voice>
                <type>eighth</type>
                <accidental>sharp</accidental>
                <time-modification>
                    <actual-notes>3</actual-notes>
                    <normal-notes>2</normal-notes>
                    <normal-type>eighth</normal-type>
                </time-modification>
                <stem>up</stem>
                <staff>1</staff>
                <beam number="1">end</beam>
                <notations>
                    <tuplet type="stop"/>
                </notations>
            </note>
            <note>
                <pitch>
                    <step>E</step>
                    <alter>-1</alter>
                    <octave>4</octave>
                </pitch>
                <duration>30</duration>
                <voice>1</voice>
                <type>eighth</type>
                <accidental>flat</accidental>
                <stem>up</stem>
                <staff>1</staff>
                <beam number="1">begin</beam>
            </note>
            <note>
                <pitch>
                    <step>A</step>
                    <octave>3</octave>
                </pitch>
                <duration>30</duration>
                <voice>1</voice>
                <type>eighth</type>
                <stem>up</stem>
                <staff>1</staff>
                <beam number="1">end</beam>
            </note>
            <note>
                <rest/>
                <duration>60</duration>
                <voice>1</voice>
                <type>quarter</type>
                <staff>1</staff>
            </note>
            <note>
                <rest/>
                <duration>30</duration>
                <voice>1</voice>
                <type>eighth</type>
                <staff>1</staff>
            </note>
        </measure>
        <measure number="2" width="84">
            <print new-system="no"/>
            <note>
                <rest/>
                <duration>210</duration>
                <voice>1</voice>
                <type>whole</type>
                <staff>1</staff>
            </note>
        </measure>
        <measure number="3" width="83">
            <print new-system="no"/>
            <note>
                <rest/>
                <duration>210</duration>
                <voice>1</voice>
                <type>whole</type>
                <staff>1</staff>
            </note>
        </measure>
        <measure number="4" width="84">
            <print new-system="no"/>
            <note>
                <rest/>
                <duration>210</duration>
                <voice>1</voice>
                <type>whole</type>
                <staff>1</staff>
            </note>
        </measure>
        <measure number="5" width="210">
            <print new-system="no"/>
            <note>
                <rest/>
                <duration>60</duration>
                <voice>1</voice>
                <type>quarter</type>
                <staff>1</staff>
            </note>
            <note>
                <pitch>
                    <step>C</step>
                    <octave>4</octave>
                </pitch>
                <duration>30</duration>
                <voice>1</voice>
                <type>eighth</type>
                <stem>up</stem>
                <staff>1</staff>
                <beam number="1">begin</beam>
            </note>
            <note>
                <pitch>
                    <step>B</step>
                    <alter>-1</alter>
                    <octave>4</octave>
                </pitch>
                <duration>30</duration>
                <voice>1</voice>
                <type>eighth</type>
                <accidental>flat</accidental>
                <stem>up</stem>
                <staff>1</staff>
                <beam number="1">end</beam>
            </note>
            <note>
                <rest/>
                <duration>30</duration>
                <voice>1</voice>
                <type>eighth</type>
                <staff>1</staff>
            </note>
            <note>
                <pitch>
                    <step>C</step>
                    <octave>5</octave>
                </pitch>
                <duration>30</duration>
                <voice>1</voice>
                <type>eighth</type>
                <stem>down</stem>
                <staff>1</staff>
            </note>
            <note>
                <rest/>
                <duration>30</duration>
                <voice>1</voice>
                <type>eighth</type>
                <staff>1</staff>
            </note>
        </measure>
        <measure number="6" width="177">
            <print new-system="no"/>
            <note>
                <pitch>
                    <step>F</step>
                    <alter>1</alter>
                    <octave>4</octave>
                </pitch>
                <duration>30</duration>
                <voice>1</voice>
                <type>eighth</type>
                <accidental>sharp</accidental>
                <stem>up</stem>
                <staff>1</staff>
            </note>
            <note>
                <rest/>
                <duration>30</duration>
                <voice>1</voice>
                <type>eighth</type>
                <staff>1</staff>
            </note>
            <note>
                <rest/>
                <duration>60</duration>
                <voice>1</voice>
                <type>quarter</type>
                <staff>1</staff>
            </note>
            <note>
                <rest/>
                <duration>60</duration>
                <voice>1</voice>
                <type>quarter</type>
                <staff>1</staff>
            </note>
            <note>
                <rest/>
                <duration>30</duration>
                <voice>1</voice>
                <type>eighth</type>
                <staff>1</staff>
            </note>
        </measure>
        <measure number="7" width="260">
            <print new-system="yes">
                <system-layout>
                    <system-margins>
                        <left-margin>26</left-margin>
                        <right-margin>0</right-margin>
                    </system-margins>
                    <system-distance>87</system-distance>
                </system-layout>
            </print>
            <note>
                <rest/>
                <duration>60</duration>
                <voice>1</voice>
                <type>quarter</type>
                <staff>1</staff>
            </note>
            <note>
                <pitch>
                    <step>C</step>
                    <octave>4</octave>
                </pitch>
                <duration>30</duration>
                <voice>1</voice>
                <type>eighth</type>
                <stem>up</stem>
                <staff>1</staff>
                <beam number="1">begin</beam>
            </note>
            <note>
                <pitch>
                    <step>B</step>
                    <alter>-1</alter>
                    <octave>4</octave>
                </pitch>
                <duration>30</duration>
                <voice>1</voice>
                <type>eighth</type>
                <accidental>flat</accidental>
                <stem>up</stem>
                <staff>1</staff>
                <beam number="1">end</beam>
            </note>
            <note>
                <rest/>
                <duration>30</duration>
                <voice>1</voice>
                <type>eighth</type>
                <staff>1</staff>
            </note>
            <note>
                <pitch>
                    <step>C</step>
                    <octave>5</octave>
                </pitch>
                <duration>30</duration>
                <voice>1</voice>
                <type>eighth</type>
                <stem>down</stem>
                <staff>1</staff>
            </note>
            <note>
                <rest/>
                <duration>30</duration>
                <voice>1</voice>
                <type>eighth</type>
                <staff>1</staff>
            </note>
        </measure>
        <measure number="8" width="212">
            <print new-system="no"/>
            <note>
                <pitch>
                    <step>F</step>
                    <alter>1</alter>
                    <octave>4</octave>
                </pitch>
                <duration>20</duration>
                <voice>1</voice>
                <type>eighth</type>
                <accidental>sharp</accidental>
                <time-modification>
                    <actual-notes>3</actual-notes>
                    <normal-notes>2</normal-notes>
                    <normal-type>eighth</normal-type>
                </time-modification>
                <stem>up</stem>
                <staff>1</staff>
                <beam number="1">begin</beam>
                <notations>
                    <tuplet type="start"/>
                </notations>
            </note>
            <note>
                <pitch>
                    <step>C</step>
                    <octave>5</octave>
                </pitch>
                <duration>20</duration>
                <voice>1</voice>
                <type>eighth</type>
                <time-modification>
                    <actual-notes>3</actual-notes>
                    <normal-notes>2</normal-notes>
                    <normal-type>eighth</normal-type>
                </time-modification>
                <stem>up</stem>
                <staff>1</staff>
                <beam number="1">continue</beam>
            </note>
            <note>
                <pitch>
                    <step>F</step>
                    <alter>1</alter>
                    <octave>4</octave>
                </pitch>
                <duration>20</duration>
                <voice>1</voice>
                <type>eighth</type>
                <time-modification>
                    <actual-notes>3</actual-notes>
                    <normal-notes>2</normal-notes>
                    <normal-type>eighth</normal-type>
                </time-modification>
                <stem>up</stem>
                <staff>1</staff>
                <beam number="1">end</beam>
                <notations>
                    <tuplet type="stop"/>
                </notations>
            </note>
            <note>
                <rest/>
                <duration>60</duration>
                <voice>1</voice>
                <type>quarter</type>
                <staff>1</staff>
            </note>
            <note>
                <rest/>
                <duration>60</duration>
                <voice>1</voice>
                <type>quarter</type>
                <staff>1</staff>
            </note>
            <note>
                <rest/>
                <duration>30</duration>
                <voice>1</voice>
                <type>eighth</type>
                <staff>1</staff>
            </note>
        </measure>
        <measure number="9" width="265">
            <print new-system="no"/>
            <note>
                <rest/>
                <duration>30</duration>
                <voice>1</voice>
                <type>eighth</type>
                <staff>1</staff>
            </note>
            <note>
                <pitch>
                    <step>G</step>
                    <octave>4</octave>
                </pitch>
                <duration>30</duration>
                <voice>1</voice>
                <type>eighth</type>
                <stem>up</stem>
                <staff>1</staff>
            </note>
            <note>
                <pitch>
                    <step>D</step>
                    <octave>4</octave>
                </pitch>
                <duration>30</duration>
                <voice>1</voice>
                <type>eighth</type>
                <stem>up</stem>
                <staff>1</staff>
                <beam number="1">begin</beam>
            </note>
            <note>
                <pitch>
                    <step>A</step>
                    <alter>-1</alter>
                    <octave>3</octave>
                </pitch>
                <duration>30</duration>
                <voice>1</voice>
                <type>eighth</type>
                <accidental>flat</accidental>
                <stem>up</stem>
                <staff>1</staff>
                <beam number="1">end</beam>
            </note>
            <note>
                <pitch>
                    <step>A</step>
                    <alter>-1</alter>
                    <octave>4</octave>
                </pitch>
                <duration>30</duration>
                <voice>1</voice>
                <type>eighth</type>
                <accidental>flat</accidental>
                <stem>up</stem>
                <staff>1</staff>
                <beam number="1">begin</beam>
            </note>
            <note>
                <pitch>
                    <step>E</step>
                    <octave>4</octave>
                </pitch>
                <duration>30</duration>
                <voice>1</voice>
                <type>eighth</type>
                <stem>up</stem>
                <staff>1</staff>
                <beam number="1">end</beam>
            </note>
            <note>
                <rest/>
                <duration>30</duration>
                <voice>1</voice>
                <type>eighth</type>
                <staff>1</staff>
            </note>
        </measure>
        <measure number="10" width="303">
            <print new-system="no"/>
            <note>
                <rest/>
                <duration>30</duration>
                <voice>1</voice>
                <type>eighth</type>
                <staff>1</staff>
            </note>
            <note>
                <pitch>
                    <step>F</step>
                    <octave>4</octave>
                </pitch>
                <duration>30</duration>
                <voice>1</voice>
                <type>eighth</type>
                <stem>up</stem>
                <staff>1</staff>
            </note>
            <note>
                <pitch>
                    <step>D</step>
                    <octave>4</octave>
                </pitch>
                <duration>20</duration>
                <voice>1</voice>
                <type>eighth</type>
                <time-modification>
                    <actual-notes>3</actual-notes>
                    <normal-notes>2</normal-notes>
                    <normal-type>eighth</normal-type>
                </time-modification>
                <stem>up</stem>
                <staff>1</staff>
                <beam number="1">begin</beam>
                <notations>
                    <tuplet type="start"/>
                </notations>
            </note>
            <note>
                <pitch>
                    <step>B</step>
                    <alter>-1</alter>
                    <octave>3</octave>
                </pitch>
                <duration>20</duration>
                <voice>1</voice>
                <type>eighth</type>
                <accidental>flat</accidental>
                <time-modification>
                    <actual-notes>3</actual-notes>
                    <normal-notes>2</normal-notes>
                    <normal-type>eighth</normal-type>
                </time-modification>
                <stem>up</stem>
                <staff>1</staff>
                <beam number="1">continue</beam>
            </note>
            <note>
                <pitch>
                    <step>F</step>
                    <alter>1</alter>
                    <octave>3</octave>
                </pitch>
                <duration>20</duration>
                <voice>1</voice>
                <type>eighth</type>
                <accidental>sharp</accidental>
                <time-modification>
                    <actual-notes>3</actual-notes>
                    <normal-notes>2</normal-notes>
                    <normal-type>eighth</normal-type>
                </time-modification>
                <stem>up</stem>
                <staff>1</staff>
                <beam number="1">end</beam>
                <notations>
                    <tuplet type="stop"/>
                </notations>
            </note>
            <note>
                <pitch>
                    <step>E</step>
                    <alter>-1</alter>
                    <octave>4</octave>
                </pitch>
                <duration>30</duration>
                <voice>1</voice>
                <type>eighth</type>
                <accidental>flat</accidental>
                <stem>up</stem>
                <staff>1</staff>
                <beam number="1">begin</beam>
            </note>
            <note>
                <pitch>
                    <step>A</step>
                    <octave>3</octave>
                </pitch>
                <duration>30</duration>
                <voice>1</voice>
                <type>eighth</type>
                <stem>up</stem>
                <staff>1</staff>
                <beam number="1">end</beam>
            </note>
            <note>
                <rest/>
                <duration>30</duration>
                <voice>1</voice>
                <type>eighth</type>
                <staff>1</staff>
            </note>
        </measure>
        <measure number="11" width="223">
            <print new-system="yes">
                <system-layout>
                    <system-margins>
                        <left-margin>26</left-margin>
                        <right-margin>0</right-margin>
                    </system-margins>
                    <system-distance>87</system-distance>
                </system-layout>
            </print>
            <note>
                <rest/>
                <duration>60</duration>
                <voice>1</voice>
                <type>quarter</type>
                <staff>1</staff>
            </note>
            <note>
                <pitch>
                    <step>C</step>
                    <octave>4</octave>
                </pitch>
                <duration>30</duration>
                <voice>1</voice>
                <type>eighth</type>
                <stem>up</stem>
                <staff>1</staff>
                <beam number="1">begin</beam>
            </note>
            <note>
                <pitch>
                    <step>B</step>
                    <alter>-1</alter>
                    <octave>4</octave>
                </pitch>
                <duration>30</duration>
                <voice>1</voice>
                <type>eighth</type>
                <accidental>flat</accidental>
                <stem>up</stem>
                <staff>1</staff>
                <beam number="1">end</beam>
            </note>
            <note>
                <rest/>
                <duration>30</duration>
                <voice>1</voice>
                <type>eighth</type>
                <staff>1</staff>
            </note>
            <note>
                <pitch>
                    <step>C</step>
                    <octave>5</octave>
                </pitch>
                <duration>30</duration>
                <voice>1</voice>
                <type>eighth</type>
                <stem>down</stem>
                <staff>1</staff>
            </note>
            <note>
                <rest/>
                <duration>30</duration>
                <voice>1</voice>
                <type>eighth</type>
                <staff>1</staff>
            </note>
        </measure>
        <measure number="12" width="151">
            <print new-system="no"/>
            <note>
                <pitch>
                    <step>E</step>
                    <alter>-1</alter>
                    <octave>5</octave>
                </pitch>
                <duration>30</duration>
                <voice>1</voice>
                <type>eighth</type>
                <accidental>flat</accidental>
                <stem>down</stem>
                <staff>1</staff>
                <beam number="1">begin</beam>
            </note>
            <note>
                <pitch>
                    <step>A</step>
                    <octave>4</octave>
                </pitch>
                <duration>30</duration>
                <voice>1</voice>
                <type>eighth</type>
                <stem>down</stem>
                <staff>1</staff>
                <beam number="1">end</beam>
            </note>
            <note>
                <rest/>
                <duration>60</duration>
                <voice>1</voice>
                <type>quarter</type>
                <staff>1</staff>
            </note>
            <note>
                <rest/>
                <duration>60</duration>
                <voice>1</voice>
                <type>quarter</type>
                <staff>1</staff>
            </note>
            <note>
                <rest/>
                <duration>30</duration>
                <voice>1</voice>
                <type>eighth</type>
                <staff>1</staff>
            </note>
        </measure>
        <measure number="13" width="192">
            <print new-system="no"/>
            <note>
                <rest/>
                <duration>60</duration>
                <voice>1</voice>
                <type>quarter</type>
                <staff>1</staff>
            </note>
            <note>
                <pitch>
                    <step>C</step>
                    <octave>4</octave>
                </pitch>
                <duration>30</duration>
                <voice>1</voice>
                <type>eighth</type>
                <stem>up</stem>
                <staff>1</staff>
                <beam number="1">begin</beam>
            </note>
            <note>
                <pitch>
                    <step>B</step>
                    <alter>-1</alter>
                    <octave>4</octave>
                </pitch>
                <duration>30</duration>
                <voice>1</voice>
                <type>eighth</type>
                <accidental>flat</accidental>
                <stem>up</stem>
                <staff>1</staff>
                <beam number="1">end</beam>
            </note>
            <note>
                <rest/>
                <duration>30</duration>
                <voice>1</voice>
                <type>eighth</type>
                <staff>1</staff>
            </note>
            <note>
                <pitch>
                    <step>C</step>
                    <octave>5</octave>
                </pitch>
                <duration>30</duration>
                <voice>1</voice>
                <type>eighth</type>
                <stem>down</stem>
                <staff>1</staff>
            </note>
            <note>
                <pitch>
                    <step>F</step>
                    <alter>1</alter>
                    <octave>5</octave>
                </pitch>
                <duration>30</duration>
                <voice>1</voice>
                <type>eighth</type>
                <accidental>sharp</accidental>
                <stem>down</stem>
                <staff>1</staff>
            </note>
        </measure>
        <measure number="14" width="250">
            <print new-system="no"/>
            <note>
                <pitch>
                    <step>F</step>
                    <octave>5</octave>
                </pitch>
                <duration>30</duration>
                <voice>1</voice>
                <type>eighth</type>
                <stem>down</stem>
                <staff>1</staff>
                <beam number="1">begin</beam>
            </note>
            <note>
                <pitch>
                    <step>E</step>
                    <alter>-1</alter>
                    <octave>5</octave>
                </pitch>
                <duration>30</duration>
                <voice>1</voice>
                <type>eighth</type>
                <accidental>flat</accidental>
                <stem>down</stem>
                <staff>1</staff>
                <beam number="1">end</beam>
            </note>
            <note>
                <pitch>
                    <step>C</step>
                    <octave>5</octave>
                </pitch>
                <duration>30</duration>
                <voice>1</voice>
                <type>eighth</type>
                <stem>down</stem>
                <staff>1</staff>
                <beam number="1">begin</beam>
            </note>
            <note>
                <pitch>
                    <step>B</step>
                    <alter>-1</alter>
                    <octave>4</octave>
                </pitch>
                <duration>30</duration>
                <voice>1</voice>
                <type>eighth</type>
                <accidental>flat</accidental>
                <stem>down</stem>
                <staff>1</staff>
                <beam number="1">end</beam>
            </note>
            <note>
                <pitch>
                    <step>F</step>
                    <alter>1</alter>
                    <octave>4</octave>
                </pitch>
                <duration>30</duration>
                <voice>1</voice>
                <type>eighth</type>
                <accidental>sharp</accidental>
                <stem>up</stem>
                <staff>1</staff>
                <beam number="1">begin</beam>
            </note>
            <note>
                <pitch>
                    <step>F</step>
                    <octave>4</octave>
                </pitch>
                <duration>30</duration>
                <voice>1</voice>
                <type>eighth</type>
                <accidental>natural</accidental>
                <stem>up</stem>
                <staff>1</staff>
                <beam number="1">end</beam>
            </note>
            <note>
                <pitch>
                    <step>E</step>
                    <alter>-1</alter>
                    <octave>4</octave>
                </pitch>
                <duration>30</duration>
                <voice>1</voice>
                <type>eighth</type>
                <accidental>flat</accidental>
                <stem>up</stem>
                <staff>1</staff>
            </note>
        </measure>
        <measure number="15" width="223">
            <print new-system="no"/>
            <note>
                <pitch>
                    <step>G</step>
                    <octave>4</octave>
                </pitch>
                <duration>30</duration>
                <voice>1</voice>
                <type>eighth</type>
                <stem>up</stem>
                <staff>1</staff>
            </note>
            <note>
                <rest/>
                <duration>30</duration>
                <voice>1</voice>
                <type>eighth</type>
                <staff>1</staff>
            </note>
            <note>
                <pitch>
                    <step>D</step>
                    <octave>4</octave>
                </pitch>
                <duration>30</duration>
                <voice>1</voice>
                <type>eighth</type>
                <stem>up</stem>
                <staff>1</staff>
                <beam number="1">begin</beam>
            </note>
            <note>
                <pitch>
                    <step>A</step>
                    <alter>-1</alter>
                    <octave>3</octave>
                </pitch>
                <duration>30</duration>
                <voice>1</voice>
                <type>eighth</type>
                <accidental>flat</accidental>
                <stem>up</stem>
                <staff>1</staff>
                <beam number="1">end</beam>
            </note>
            <note>
                <pitch>
                    <step>A</step>
                    <alter>-1</alter>
                    <octave>4</octave>
                </pitch>
                <duration>30</duration>
                <voice>1</voice>
                <type>eighth</type>
                <accidental>flat</accidental>
                <stem>up</stem>
                <staff>1</staff>
                <beam number="1">begin</beam>
            </note>
            <note>
                <pitch>
                    <step>E</step>
                    <octave>4</octave>
                </pitch>
                <duration>30</duration>
                <voice>1</voice>
                <type>eighth</type>
                <stem>up</stem>
                <staff>1</staff>
                <beam number="1">end</beam>
            </note>
            <note>
                <rest/>
                <duration>30</duration>
                <voice>1</voice>
                <type>eighth</type>
                <staff>1</staff>
            </note>
        </measure>
        <measure number="16" width="386">
            <print new-system="yes">
                <system-layout>
                    <system-margins>
                        <left-margin>26</left-margin>
                        <right-margin>0</right-margin>
                    </system-margins>
                    <system-distance>87</system-distance>
                </system-layout>
            </print>
            <note>
                <rest/>
                <duration>20</duration>
                <voice>1</voice>
                <type>eighth</type>
                <time-modification>
                    <actual-notes>3</actual-notes>
                    <normal-notes>2</normal-notes>
                    <normal-type>eighth</normal-type>
                </time-modification>
                <staff>1</staff>
                <notations>
                    <tuplet type="start"/>
                </notations>
            </note>
            <note>
                <pitch>
                    <step>B</step>
                    <octave>3</octave>
                </pitch>
                <duration>20</duration>
                <voice>1</voice>
                <type>eighth</type>
                <time-modification>
                    <actual-notes>3</actual-notes>
                    <normal-notes>2</normal-notes>
                    <normal-type>eighth</normal-type>
                </time-modification>
                <stem>up</stem>
                <staff>1</staff>
                <beam number="1">begin</beam>
            </note>
            <note>
                <pitch>
                    <step>B</step>
                    <octave>3</octave>
                </pitch>
                <duration>20</duration>
                <voice>1</voice>
                <type>eighth</type>
                <time-modification>
                    <actual-notes>3</actual-notes>
                    <normal-notes>2</normal-notes>
                    <normal-type>eighth</normal-type>
                </time-modification>
                <stem>up</stem>
                <staff>1</staff>
                <beam number="1">end</beam>
                <notations>
                    <tuplet type="stop"/>
                </notations>
            </note>
            <note>
                <pitch>
                    <step>E</step>
                    <alter>-1</alter>
                    <octave>4</octave>
                </pitch>
                <duration>20</duration>
                <voice>1</voice>
                <type>eighth</type>
                <accidental>flat</accidental>
                <time-modification>
                    <actual-notes>3</actual-notes>
                    <normal-notes>2</normal-notes>
                    <normal-type>eighth</normal-type>
                </time-modification>
                <stem>up</stem>
                <staff>1</staff>
                <beam number="1">begin</beam>
                <notations>
                    <tuplet type="start"/>
                </notations>
            </note>
            <note>
                <pitch>
                    <step>G</step>
                    <octave>4</octave>
                </pitch>
                <duration>20</duration>
                <voice>1</voice>
                <type>eighth</type>
                <time-modification>
                    <actual-notes>3</actual-notes>
                    <normal-notes>2</normal-notes>
                    <normal-type>eighth</normal-type>
                </time-modification>
                <stem>up</stem>
                <staff>1</staff>
                <beam number="1">continue</beam>
            </note>
            <note>
                <pitch>
                    <step>B</step>
                    <alter>-1</alter>
                    <octave>4</octave>
                </pitch>
                <duration>20</duration>
                <voice>1</voice>
                <type>eighth</type>
                <accidental>flat</accidental>
                <time-modification>
                    <actual-notes>3</actual-notes>
                    <normal-notes>2</normal-notes>
                    <normal-type>eighth</normal-type>
                </time-modification>
                <stem>up</stem>
                <staff>1</staff>
                <beam number="1">end</beam>
                <notations>
                    <tuplet type="stop"/>
                </notations>
            </note>
            <note>
                <pitch>
                    <step>E</step>
                    <alter>-1</alter>
                    <octave>4</octave>
                </pitch>
                <duration>30</duration>
                <voice>1</voice>
                <type>eighth</type>
                <stem>up</stem>
                <staff>1</staff>
            </note>
            <note>
                <rest/>
                <duration>30</duration>
                <voice>1</voice>
                <type>eighth</type>
                <staff>1</staff>
            </note>
            <note>
                <pitch>
                    <step>E</step>
                    <alter>-1</alter>
                    <octave>4</octave>
                </pitch>
                <duration>30</duration>
                <voice>1</voice>
                <type>eighth</type>
                <stem>up</stem>
                <staff>1</staff>
            </note>
        </measure>
        <measure number="17" width="343">
            <print new-system="no"/>
            <attributes>
                <time>
                    <beats>4</beats>
                    <beat-type>4</beat-type>
                </time>
            </attributes>
            <note>
                <pitch>
                    <step>A</step>
                    <octave>3</octave>
                </pitch>
                <duration>30</duration>
                <voice>1</voice>
                <type>eighth</type>
                <stem>up</stem>
                <staff>1</staff>
            </note>
            <note>
                <rest/>
                <duration>30</duration>
                <voice>1</voice>
                <type>eighth</type>
                <staff>1</staff>
            </note>
            <note>
                <pitch>
                    <step>D</step>
                    <octave>4</octave>
                </pitch>
                <duration>30</duration>
                <voice>1</voice>
                <type>eighth</type>
                <stem>up</stem>
                <staff>1</staff>
            </note>
            <note>
                <rest/>
                <duration>30</duration>
                <voice>1</voice>
                <type>eighth</type>
                <staff>1</staff>
            </note>
            <note>
                <pitch>
                    <step>G</step>
                    <octave>4</octave>
                </pitch>
                <duration>30</duration>
                <voice>1</voice>
                <type>eighth</type>
                <stem>down</stem>
                <staff>1</staff>
                <beam number="1">begin</beam>
            </note>
            <note>
                <pitch>
                    <step>C</step>
                    <octave>5</octave>
                </pitch>
                <duration>30</duration>
                <voice>1</voice>
                <type>eighth</type>
                <stem>down</stem>
                <staff>1</staff>
                <beam number="1">continue</beam>
            </note>
            <note>
                <pitch>
                    <step>G</step>
                    <octave>5</octave>
                </pitch>
                <duration>30</duration>
                <voice>1</voice>
                <type>eighth</type>
                <stem>down</stem>
                <staff>1</staff>
                <beam number="1">continue</beam>
            </note>
            <note>
                <pitch>
                    <step>B</step>
                    <octave>5</octave>
                </pitch>
                <duration>30</duration>
                <voice>1</voice>
                <type>eighth</type>
                <stem>down</stem>
                <staff>1</staff>
                <beam number="1">end</beam>
            </note>
        </measure>
        <measure number="18" width="312">
            <print new-system="no"/>
            <note>
                <pitch>
                    <step>D</step>
                    <octave>6</octave>
                </pitch>
                <duration>30</duration>
                <voice>1</voice>
                <type>eighth</type>
                <stem>down</stem>
                <staff>1</staff>
                <beam number="1">begin</beam>
            </note>
            <note>
                <pitch>
                    <step>F</step>
                    <octave>5</octave>
                </pitch>
                <duration>30</duration>
                <voice>1</voice>
                <type>eighth</type>
                <stem>down</stem>
                <staff>1</staff>
                <beam number="1">end</beam>
            </note>
            <note>
                <rest/>
                <duration>30</duration>
                <voice>1</voice>
                <type>eighth</type>
                <staff>1</staff>
            </note>
            <note>
                <pitch>
                    <step>A</step>
                    <octave>4</octave>
                </pitch>
                <duration>30</duration>
                <voice>1</voice>
                <type>eighth</type>
                <stem>up</stem>
                <staff>1</staff>
            </note>
            <note>
                <pitch>
                    <step>D</step>
                    <octave>5</octave>
                </pitch>
                <duration>30</duration>
                <voice>1</voice>
                <type>eighth</type>
                <stem>down</stem>
                <staff>1</staff>
                <beam number="1">begin</beam>
            </note>
            <note>
                <pitch>
                    <step>G</step>
                    <octave>5</octave>
                </pitch>
                <duration>30</duration>
                <voice>1</voice>
                <type>eighth</type>
                <stem>down</stem>
                <staff>1</staff>
                <beam number="1">continue</beam>
            </note>
            <note>
                <pitch>
                    <step>E</step>
                    <octave>6</octave>
                </pitch>
                <duration>30</duration>
                <voice>1</voice>
                <type>eighth</type>
                <stem>down</stem>
                <staff>1</staff>
                <beam number="1">continue</beam>
            </note>
            <note>
                <pitch>
                    <step>A</step>
                    <octave>5</octave>
                </pitch>
                <duration>30</duration>
                <voice>1</voice>
                <type>eighth</type>
                <stem>down</stem>
                <staff>1</staff>
                <beam number="1">end</beam>
            </note>
        </measure>
        <measure number="19" width="362">
            <print new-system="yes">
                <system-layout>
                    <system-margins>
                        <left-margin>26</left-margin>
                        <right-margin>0</right-margin>
                    </system-margins>
                    <system-distance>87</system-distance>
                </system-layout>
            </print>
            <note>
                <pitch>
                    <step>D</step>
                    <octave>5</octave>
                </pitch>
                <duration>20</duration>
                <voice>1</voice>
                <type>eighth</type>
                <time-modification>
                    <actual-notes>3</actual-notes>
                    <normal-notes>2</normal-notes>
                    <normal-type>eighth</normal-type>
                </time-modification>
                <stem>up</stem>
                <staff>1</staff>
                <beam number="1">begin</beam>
                <notations>
                    <tuplet type="start"/>
                </notations>
            </note>
            <note>
                <pitch>
                    <step>G</step>
                    <octave>4</octave>
                </pitch>
                <duration>20</duration>
                <voice>1</voice>
                <type>eighth</type>
                <time-modification>
                    <actual-notes>3</actual-notes>
                    <normal-notes>2</normal-notes>
                    <normal-type>eighth</normal-type>
                </time-modification>
                <stem>up</stem>
                <staff>1</staff>
                <beam number="1">continue</beam>
            </note>
            <note>
                <pitch>
                    <step>A</step>
                    <octave>3</octave>
                </pitch>
                <duration>20</duration>
                <voice>1</voice>
                <type>eighth</type>
                <time-modification>
                    <actual-notes>3</actual-notes>
                    <normal-notes>2</normal-notes>
                    <normal-type>eighth</normal-type>
                </time-modification>
                <stem>up</stem>
                <staff>1</staff>
                <beam number="1">end</beam>
                <notations>
                    <tuplet type="stop"/>
                </notations>
            </note>
            <note>
                <pitch>
                    <step>B</step>
                    <alter>-1</alter>
                    <octave>4</octave>
                </pitch>
                <duration>30</duration>
                <voice>1</voice>
                <type>eighth</type>
                <accidental>flat</accidental>
                <stem>down</stem>
                <staff>1</staff>
                <beam number="1">begin</beam>
            </note>
            <note>
                <pitch>
                    <step>F</step>
                    <octave>5</octave>
                </pitch>
                <duration>30</duration>
                <voice>1</voice>
                <type>eighth</type>
                <stem>down</stem>
                <staff>1</staff>
                <beam number="1">end</beam>
            </note>
            <note>
                <rest/>
                <duration>30</duration>
                <voice>1</voice>
                <type>eighth</type>
                <staff>1</staff>
            </note>
            <note>
                <pitch>
                    <step>E</step>
                    <alter>-1</alter>
                    <octave>5</octave>
                </pitch>
                <duration>30</duration>
                <voice>1</voice>
                <type>eighth</type>
                <accidental>flat</accidental>
                <stem>down</stem>
                <staff>1</staff>
            </note>
            <note>
                <pitch>
                    <step>B</step>
                    <alter>-1</alter>
                    <octave>4</octave>
                </pitch>
                <duration>30</duration>
                <voice>1</voice>
                <type>eighth</type>
                <stem>up</stem>
                <staff>1</staff>
                <beam number="1">begin</beam>
            </note>
            <note>
                <pitch>
                    <step>G</step>
                    <octave>4</octave>
                </pitch>
                <duration>30</duration>
                <voice>1</voice>
                <type>eighth</type>
                <stem>up</stem>
                <staff>1</staff>
                <beam number="1">end</beam>
            </note>
        </measure>
        <measure number="20" width="319">
            <print new-system="no"/>
            <note>
                <pitch>
                    <step>A</step>
                    <octave>4</octave>
                </pitch>
                <duration>30</duration>
                <voice>1</voice>
                <type>eighth</type>
                <stem>up</stem>
                <staff>1</staff>
            </note>
            <note>
                <rest/>
                <duration>30</duration>
                <voice>1</voice>
                <type>eighth</type>
                <staff>1</staff>
            </note>
            <note>
                <rest/>
                <duration>30</duration>
                <voice>1</voice>
                <type>eighth</type>
                <staff>1</staff>
            </note>
            <note>
                <pitch>
                    <step>E</step>
                    <alter>-1</alter>
                    <octave>4</octave>
                </pitch>
                <duration>30</duration>
                <voice>1</voice>
                <type>eighth</type>
                <accidental>flat</accidental>
                <stem>up</stem>
                <staff>1</staff>
            </note>
            <note>
                <pitch>
                    <step>A</step>
                    <octave>3</octave>
                </pitch>
                <duration>30</duration>
                <voice>1</voice>
                <type>eighth</type>
                <stem>up</stem>
                <staff>1</staff>
            </note>
            <note>
                <rest/>
                <duration>30</duration>
                <voice>1</voice>
                <type>eighth</type>
                <staff>1</staff>
            </note>
            <note>
                <pitch>
                    <step>E</step>
                    <octave>4</octave>
                </pitch>
                <duration>30</duration>
                <voice>1</voice>
                <type>eighth</type>
                <accidental>natural</accidental>
                <stem>up</stem>
                <staff>1</staff>
                <beam number="1">begin</beam>
            </note>
            <note>
                <pitch>
                    <step>A</step>
                    <octave>4</octave>
                </pitch>
                <duration>30</duration>
                <voice>1</voice>
                <type>eighth</type>
                <stem>up</stem>
                <staff>1</staff>
                <beam number="1">end</beam>
            </note>
        </measure>
        <measure number="21" width="360">
            <print new-system="no"/>
            <note>
                <pitch>
                    <step>A</step>
                    <octave>5</octave>
                </pitch>
                <duration>30</duration>
                <voice>1</voice>
                <type>eighth</type>
                <stem>down</stem>
                <staff>1</staff>
                <beam number="1">begin</beam>
            </note>
            <note>
                <pitch>
                    <step>C</step>
                    <octave>5</octave>
                </pitch>
                <duration>30</duration>
                <voice>1</voice>
                <type>eighth</type>
                <stem>down</stem>
                <staff>1</staff>
                <beam number="1">end</beam>
            </note>
            <note>
                <pitch>
                    <step>G</step>
                    <octave>4</octave>
                </pitch>
                <duration>20</duration>
                <voice>1</voice>
                <type>eighth</type>
                <time-modification>
                    <actual-notes>3</actual-notes>
                    <normal-notes>2</normal-notes>
                    <normal-type>eighth</normal-type>
                </time-modification>
                <stem>up</stem>
                <staff>1</staff>
                <beam number="1">begin</beam>
                <notations>
                    <tuplet type="start"/>
                </notations>
            </note>
            <note>
                <pitch>
                    <step>F</step>
                    <octave>4</octave>
                </pitch>
                <duration>20</duration>
                <voice>1</voice>
                <type>eighth</type>
                <time-modification>
                    <actual-notes>3</actual-notes>
                    <normal-notes>2</normal-notes>
                    <normal-type>eighth</normal-type>
                </time-modification>
                <stem>up</stem>
                <staff>1</staff>
                <beam number="1">continue</beam>
            </note>
            <note>
                <pitch>
                    <step>B</step>
                    <octave>3</octave>
                </pitch>
                <duration>20</duration>
                <voice>1</voice>
                <type>eighth</type>
                <time-modification>
                    <actual-notes>3</actual-notes>
                    <normal-notes>2</normal-notes>
                    <normal-type>eighth</normal-type>
                </time-modification>
                <stem>up</stem>
                <staff>1</staff>
                <beam number="1">end</beam>
                <notations>
                    <tuplet type="stop"/>
                </notations>
            </note>
            <note>
                <pitch>
                    <step>E</step>
                    <octave>4</octave>
                </pitch>
                <duration>30</duration>
                <voice>1</voice>
                <type>eighth</type>
                <stem>up</stem>
                <staff>1</staff>
                <beam number="1">begin</beam>
            </note>
            <note>
                <pitch>
                    <step>G</step>
                    <octave>3</octave>
                </pitch>
                <duration>30</duration>
                <voice>1</voice>
                <type>eighth</type>
                <stem>up</stem>
                <staff>1</staff>
                <beam number="1">end</beam>
            </note>
            <note>
                <pitch>
                    <step>C</step>
                    <octave>4</octave>
                </pitch>
                <duration>20</duration>
                <voice>1</voice>
                <type>eighth</type>
                <time-modification>
                    <actual-notes>3</actual-notes>
                    <normal-notes>2</normal-notes>
                    <normal-type>eighth</normal-type>
                </time-modification>
                <stem>down</stem>
                <staff>1</staff>
                <beam number="1">begin</beam>
                <notations>
                    <tuplet type="start"/>
                </notations>
            </note>
            <note>
                <pitch>
                    <step>F</step>
                    <alter>1</alter>
                    <octave>4</octave>
                </pitch>
                <duration>20</duration>
                <voice>1</voice>
                <type>eighth</type>
                <accidental>sharp</accidental>
                <time-modification>
                    <actual-notes>3</actual-notes>
                    <normal-notes>2</normal-notes>
                    <normal-type>eighth</normal-type>
                </time-modification>
                <stem>down</stem>
                <staff>1</staff>
                <beam number="1">continue</beam>
            </note>
            <note>
                <pitch>
                    <step>A</step>
                    <octave>5</octave>
                </pitch>
                <duration>20</duration>
                <voice>1</voice>
                <type>eighth</type>
                <time-modification>
                    <actual-notes>3</actual-notes>
                    <normal-notes>2</normal-notes>
                    <normal-type>eighth</normal-type>
                </time-modification>
                <stem>down</stem>
                <staff>1</staff>
                <beam number="1">end</beam>
                <notations>
                    <tuplet type="stop"/>
                </notations>
            </note>
        </measure>
        <measure number="22" width="421">
            <print new-system="yes">
                <system-layout>
                    <system-margins>
                        <left-margin>26</left-margin>
                        <right-margin>0</right-margin>
                    </system-margins>
                    <system-distance>87</system-distance>
                </system-layout>
            </print>
            <note>
                <pitch>
                    <step>E</step>
                    <alter>-1</alter>
                    <octave>5</octave>
                </pitch>
                <duration>30</duration>
                <voice>1</voice>
                <type>eighth</type>
                <accidental>flat</accidental>
                <stem>down</stem>
                <staff>1</staff>
            </note>
            <note>
                <rest/>
                <duration>30</duration>
                <voice>1</voice>
                <type>eighth</type>
                <staff>1</staff>
            </note>
            <note>
                <pitch>
                    <step>A</step>
                    <octave>3</octave>
                </pitch>
                <duration>20</duration>
                <voice>1</voice>
                <type>eighth</type>
                <time-modification>
                    <actual-notes>3</actual-notes>
                    <normal-notes>2</normal-notes>
                    <normal-type>eighth</normal-type>
                </time-modification>
                <stem>up</stem>
                <staff>1</staff>
                <beam number="1">begin</beam>
                <notations>
                    <tuplet type="start"/>
                </notations>
            </note>
            <note>
                <pitch>
                    <step>F</step>
                    <octave>4</octave>
                </pitch>
                <duration>20</duration>
                <voice>1</voice>
                <type>eighth</type>
                <time-modification>
                    <actual-notes>3</actual-notes>
                    <normal-notes>2</normal-notes>
                    <normal-type>eighth</normal-type>
                </time-modification>
                <stem>up</stem>
                <staff>1</staff>
                <beam number="1">continue</beam>
            </note>
            <note>
                <pitch>
                    <step>G</step>
                    <octave>5</octave>
                </pitch>
                <duration>20</duration>
                <voice>1</voice>
                <type>eighth</type>
                <time-modification>
                    <actual-notes>3</actual-notes>
                    <normal-notes>2</normal-notes>
                    <normal-type>eighth</normal-type>
                </time-modification>
                <stem>up</stem>
                <staff>1</staff>
                <beam number="1">end</beam>
                <notations>
                    <tuplet type="stop"/>
                </notations>
            </note>
            <note>
                <pitch>
                    <step>B</step>
                    <alter>-1</alter>
                    <octave>3</octave>
                </pitch>
                <duration>20</duration>
                <voice>1</voice>
                <type>eighth</type>
                <accidental>flat</accidental>
                <time-modification>
                    <actual-notes>3</actual-notes>
                    <normal-notes>2</normal-notes>
                    <normal-type>eighth</normal-type>
                </time-modification>
                <stem>up</stem>
                <staff>1</staff>
                <beam number="1">begin</beam>
                <notations>
                    <tuplet type="start"/>
                </notations>
            </note>
            <note>
                <pitch>
                    <step>F</step>
                    <alter>1</alter>
                    <octave>4</octave>
                </pitch>
                <duration>20</duration>
                <voice>1</voice>
                <type>eighth</type>
                <accidental>sharp</accidental>
                <time-modification>
                    <actual-notes>3</actual-notes>
                    <normal-notes>2</normal-notes>
                    <normal-type>eighth</normal-type>
                </time-modification>
                <stem>up</stem>
                <staff>1</staff>
                <beam number="1">continue</beam>
            </note>
            <note>
                <pitch>
                    <step>A</step>
                    <alter>-1</alter>
                    <octave>5</octave>
                </pitch>
                <duration>20</duration>
                <voice>1</voice>
                <type>eighth</type>
                <accidental>flat</accidental>
                <time-modification>
                    <actual-notes>3</actual-notes>
                    <normal-notes>2</normal-notes>
                    <normal-type>eighth</normal-type>
                </time-modification>
                <stem>up</stem>
                <staff>1</staff>
                <beam number="1">end</beam>
                <notations>
                    <tuplet type="stop"/>
                </notations>
            </note>
            <note>
                <pitch>
                    <step>B</step>
                    <octave>3</octave>
                </pitch>
                <duration>20</duration>
                <voice>1</voice>
                <type>eighth</type>
                <accidental>natural</accidental>
                <time-modification>
                    <actual-notes>3</actual-notes>
                    <normal-notes>2</normal-notes>
                    <normal-type>eighth</normal-type>
                </time-modification>
                <stem>up</stem>
                <staff>1</staff>
                <beam number="1">begin</beam>
                <notations>
                    <tuplet type="start"/>
                </notations>
            </note>
            <note>
                <pitch>
                    <step>G</step>
                    <octave>4</octave>
                </pitch>
                <duration>20</duration>
                <voice>1</voice>
                <type>eighth</type>
                <time-modification>
                    <actual-notes>3</actual-notes>
                    <normal-notes>2</normal-notes>
                    <normal-type>eighth</normal-type>
                </time-modification>
                <stem>up</stem>
                <staff>1</staff>
                <beam number="1">continue</beam>
            </note>
            <note>
                <pitch>
                    <step>A</step>
                    <octave>5</octave>
                </pitch>
                <duration>20</duration>
                <voice>1</voice>
                <type>eighth</type>
                <accidental>natural</accidental>
                <time-modification>
                    <actual-notes>3</actual-notes>
                    <normal-notes>2</normal-notes>
                    <normal-type>eighth</normal-type>
                </time-modification>
                <stem>up</stem>
                <staff>1</staff>
                <beam number="1">end</beam>
                <notations>
                    <tuplet type="stop"/>
                </notations>
            </note>
        </measure>
        <measure number="23" width="221">
            <print new-system="no"/>
            <attributes>
                <time>
                    <beats>7</beats>
                    <beat-type>8</beat-type>
                </time>
            </attributes>
            <note>
                <pitch>
                    <step>C</step>
                    <octave>4</octave>
                </pitch>
                <duration>20</duration>
                <voice>1</voice>
                <type>eighth</type>
                <time-modification>
                    <actual-notes>3</actual-notes>
                    <normal-notes>2</normal-notes>
                    <normal-type>eighth</normal-type>
                </time-modification>
                <stem>down</stem>
                <staff>1</staff>
                <beam number="1">begin</beam>
                <notations>
                    <tuplet type="start"/>
                </notations>
            </note>
            <note>
                <pitch>
                    <step>A</step>
                    <alter>-1</alter>
                    <octave>4</octave>
                </pitch>
                <duration>20</duration>
                <voice>1</voice>
                <type>eighth</type>
                <accidental>flat</accidental>
                <time-modification>
                    <actual-notes>3</actual-notes>
                    <normal-notes>2</normal-notes>
                    <normal-type>eighth</normal-type>
                </time-modification>
                <stem>down</stem>
                <staff>1</staff>
                <beam number="1">continue</beam>
            </note>
            <note>
                <pitch>
                    <step>B</step>
                    <alter>-1</alter>
                    <octave>5</octave>
                </pitch>
                <duration>20</duration>
                <voice>1</voice>
                <type>eighth</type>
                <accidental>flat</accidental>
                <time-modification>
                    <actual-notes>3</actual-notes>
                    <normal-notes>2</normal-notes>
                    <normal-type>eighth</normal-type>
                </time-modification>
                <stem>down</stem>
                <staff>1</staff>
                <beam number="1">end</beam>
                <notations>
                    <tuplet type="stop"/>
                </notations>
            </note>
            <note>
                <rest/>
                <duration>60</duration>
                <voice>1</voice>
                <type>quarter</type>
                <staff>1</staff>
            </note>
            <note>
                <rest/>
                <duration>60</duration>
                <voice>1</voice>
                <type>quarter</type>
                <staff>1</staff>
            </note>
            <note>
                <rest/>
                <duration>30</duration>
                <voice>1</voice>
                <type>eighth</type>
                <staff>1</staff>
            </note>
        </measure>
        <measure number="24" width="57">
            <print new-system="no"/>
            <note>
                <rest/>
                <duration>210</duration>
                <voice>1</voice>
                <type>whole</type>
                <staff>1</staff>
            </note>
        </measure>
        <measure number="25" width="58">
            <print new-system="no"/>
            <note>
                <rest/>
                <duration>210</duration>
                <voice>1</voice>
                <type>whole</type>
                <staff>1</staff>
            </note>
        </measure>
        <measure number="26" width="58">
            <print new-system="no"/>
            <note>
                <rest/>
                <duration>210</duration>
                <voice>1</voice>
                <type>whole</type>
                <staff>1</staff>
            </note>
        </measure>
        <measure number="27" width="57">
            <print new-system="no"/>
            <note>
                <rest/>
                <duration>210</duration>
                <voice>1</voice>
                <type>whole</type>
                <staff>1</staff>
            </note>
        </measure>
        <measure number="28" width="58">
            <print new-system="no"/>
            <note>
                <rest/>
                <duration>210</duration>
                <voice>1</voice>
                <type>whole</type>
                <staff>1</staff>
            </note>
        </measure>
        <measure number="29" width="57">
            <print new-system="no"/>
            <note>
                <rest/>
                <duration>210</duration>
                <voice>1</voice>
                <type>whole</type>
                <staff>1</staff>
            </note>
        </measure>
        <measure number="30" width="51">
            <print new-system="no"/>
            <note>
                <rest/>
                <duration>210</duration>
                <voice>1</voice>
                <type>whole</type>
                <staff>1</staff>
            </note>
        </measure>
        <measure number="31" width="95">
            <print new-system="yes">
                <system-layout>
                    <system-margins>
                        <left-margin>26</left-margin>
                        <right-margin>0</right-margin>
                    </system-margins>
                    <system-distance>87</system-distance>
                </system-layout>
            </print>
            <note>
                <rest/>
                <duration>210</duration>
                <voice>1</voice>
                <type>whole</type>
                <staff>1</staff>
            </note>
        </measure>
        <measure number="32" width="55">
            <print new-system="no"/>
            <note>
                <rest/>
                <duration>210</duration>
                <voice>1</voice>
                <type>whole</type>
                <staff>1</staff>
            </note>
        </measure>
        <measure number="33" width="55">
            <print new-system="no"/>
            <note>
                <rest/>
                <duration>210</duration>
                <voice>1</voice>
                <type>whole</type>
                <staff>1</staff>
            </note>
        </measure>
        <measure number="34" width="55">
            <print new-system="no"/>
            <note>
                <rest/>
                <duration>210</duration>
                <voice>1</voice>
                <type>whole</type>
                <staff>1</staff>
            </note>
        </measure>
        <measure number="35" width="55">
            <print new-system="no"/>
            <note>
                <rest/>
                <duration>210</duration>
                <voice>1</voice>
                <type>whole</type>
                <staff>1</staff>
            </note>
        </measure>
        <measure number="36" width="55">
            <print new-system="no"/>
            <note>
                <rest/>
                <duration>210</duration>
                <voice>1</voice>
                <type>whole</type>
                <staff>1</staff>
            </note>
        </measure>
        <measure number="37" width="55">
            <print new-system="no"/>
            <note>
                <rest/>
                <duration>210</duration>
                <voice>1</voice>
                <type>whole</type>
                <staff>1</staff>
            </note>
        </measure>
        <measure number="38" width="55">
            <print new-system="no"/>
            <note>
                <rest/>
                <duration>210</duration>
                <voice>1</voice>
                <type>whole</type>
                <staff>1</staff>
            </note>
        </measure>
        <measure number="39" width="82">
            <print new-system="no"/>
            <attributes>
                <time>
                    <beats>4</beats>
                    <beat-type>4</beat-type>
                </time>
            </attributes>
            <note>
                <rest/>
                <duration>240</duration>
                <voice>1</voice>
                <type>whole</type>
                <staff>1</staff>
            </note>
        </measure>
        <measure number="40" width="57">
            <print new-system="no"/>
            <note>
                <rest/>
                <duration>240</duration>
                <voice>1</voice>
                <type>whole</type>
                <staff>1</staff>
            </note>
        </measure>
        <measure number="41" width="58">
            <print new-system="no"/>
            <note>
                <rest/>
                <duration>240</duration>
                <voice>1</voice>
                <type>whole</type>
                <staff>1</staff>
            </note>
        </measure>
        <measure number="42" width="57">
            <print new-system="no"/>
            <note>
                <rest/>
                <duration>240</duration>
                <voice>1</voice>
                <type>whole</type>
                <staff>1</staff>
            </note>
        </measure>
        <measure number="43" width="57">
            <print new-system="no"/>
            <note>
                <rest/>
                <duration>240</duration>
                <voice>1</voice>
                <type>whole</type>
                <staff>1</staff>
            </note>
        </measure>
        <measure number="44" width="57">
            <print new-system="no"/>
            <note>
                <rest/>
                <duration>240</duration>
                <voice>1</voice>
                <type>whole</type>
                <staff>1</staff>
            </note>
        </measure>
        <measure number="45" width="80">
            <print new-system="no"/>
            <attributes>
                <time>
                    <beats>7</beats>
                    <beat-type>8</beat-type>
                </time>
            </attributes>
            <note>
                <rest/>
                <duration>210</duration>
                <voice>1</voice>
                <type>whole</type>
                <staff>1</staff>
            </note>
        </measure>
        <measure number="46" width="55">
            <print new-system="no"/>
            <note>
                <rest/>
                <duration>210</duration>
                <voice>1</voice>
                <type>whole</type>
                <staff>1</staff>
            </note>
        </measure>
        <measure number="47" width="48">
            <print new-system="no"/>
            <note>
                <rest/>
                <duration>210</duration>
                <voice>1</voice>
                <type>whole</type>
                <staff>1</staff>
            </note>
        </measure>
        <measure number="48" width="1042">
            <print new-system="yes">
                <system-layout>
                    <system-margins>
                        <left-margin>26</left-margin>
                        <right-margin>0</right-margin>
                    </system-margins>
                    <system-distance>87</system-distance>
                </system-layout>
            </print>
            <note>
                <rest/>
                <duration>210</duration>
                <voice>1</voice>
                <type>whole</type>
                <staff>1</staff>
            </note>
        </measure>
    </part>
</score-partwise>